<?xml version="1.0" encoding="utf-8"?>
<!-- Generator: Adobe Illustrator 15.1.0, SVG Export Plug-In . SVG Version: 6.00 Build 0)  -->
<!DOCTYPE svg PUBLIC "-//W3C//DTD SVG 1.1//EN" "http://www.w3.org/Graphics/SVG/1.1/DTD/svg11.dtd">
<svg version="1.1" id="Capa_1" xmlns="http://www.w3.org/2000/svg" xmlns:xlink="http://www.w3.org/1999/xlink" x="0px" y="0px"
	 width="1024px" height="768px" viewBox="0 0 1024 768" enable-background="new 0 0 1024 768" xml:space="preserve">
<path fill="none" stroke="#000000" stroke-width="9" stroke-linecap="round" stroke-linejoin="round" stroke-miterlimit="10" d="
	M505.811,422.146c-14.754-16.07-1.78-39.597,12.601-41.721c19.118-2.825,40.202,4.851,44.755,28.508
	c5.648,29.35-14.795,65.241-48.371,66.857c-49.828,2.398-57.742-46.496-55.043-69.705c4.256-36.62,61.439-84.451,69.773-120.364
	c4.82-20.769,7.79-55.633-6.547-55.702c-17.168-0.083-19.066,30.749-21.25,41.728c-12.744,64.089,54.82,207.163,31.021,253.804
	c-5.432,10.646-11.348,14.354-18.684,14.354c-4.83,0-13.854-2.779-13.035-18.699"/>
</svg>
